<svg xmlns="http://www.w3.org/2000/svg" width="20" height="17" viewBox="0 0 20 17"><g><g><path fill="#1bd653" d="M15.032 9.16a1.205 1.205 0 0 1-1.206-1.206 1.205 1.205 0 1 1 2.412 0c0 .667-.538 1.206-1.206 1.206zm-4.824 0A1.205 1.205 0 0 1 9 7.954c0-.668.54-1.207 1.207-1.207s1.206.54 1.206 1.207-.54 1.206-1.206 1.206zm-4.825 0a1.205 1.205 0 0 1-1.206-1.206 1.205 1.205 0 1 1 2.412 0c0 .667-.539 1.206-1.206 1.206zM10.208.113c-5.33 0-9.65 3.51-9.65 7.84 0 1.87.807 3.581 2.149 4.927C2.235 14.78.66 16.472.64 16.491a.3.3 0 0 0-.057.328c.05.113.155.181.276.181 2.499 0 4.372-1.199 5.3-1.937 1.232.463 2.6.73 4.048.73 5.33 0 9.65-3.508 9.65-7.84 0-4.33-4.32-7.84-9.65-7.84z"/></g></g></svg>