<svg id="information" xmlns="http://www.w3.org/2000/svg" width="12.619" height="12.619" viewBox="0 0 12.619 12.619">
  <path id="Path_168" data-name="Path 168" d="M6.309,0a6.309,6.309,0,1,0,6.309,6.309A6.317,6.317,0,0,0,6.309,0Zm0,11.472a5.162,5.162,0,1,1,5.162-5.162A5.168,5.168,0,0,1,6.309,11.472Z" fill="#8c99a5"/>
  <path id="Path_169" data-name="Path 169" d="M145.767,70a.765.765,0,1,0,.765.765A.766.766,0,0,0,145.767,70Z" transform="translate(-139.457 -67.323)" fill="#8c99a5"/>
  <path id="Path_170" data-name="Path 170" d="M150.574,140a.574.574,0,0,0-.574.574v3.441a.574.574,0,1,0,1.147,0v-3.441A.574.574,0,0,0,150.574,140Z" transform="translate(-144.264 -134.647)" fill="#8c99a5"/>
</svg>
